<?xml version="1.0" standalone="no"?>
<!DOCTYPE svg PUBLIC "-//W3C//DTD SVG 20010904//EN"
 "http://www.w3.org/TR/2001/REC-SVG-20010904/DTD/svg10.dtd">
<svg version="1.0" xmlns="http://www.w3.org/2000/svg"
 width="512.000000pt" height="512.000000pt" viewBox="0 0 512.000000 512.000000"
 preserveAspectRatio="xMidYMid meet">
<metadata>
Created by potrace 1.11, written by Peter Selinger 2001-2013
</metadata>
<g transform="translate(0.000000,512.000000) scale(0.100000,-0.100000)"
fill="#000000" stroke="none">
<path d="M2294 5109 c-11 -6 -29 -24 -38 -41 -16 -26 -18 -55 -18 -211 0 -100
0 -194 1 -209 1 -15 14 -42 30 -60 25 -28 35 -32 72 -31 35 2 50 8 72 33 23
26 27 39 28 93 3 362 0 389 -43 416 -29 18 -78 23 -104 10z"/>
<path d="M853 5073 c-33 -6 -73 -59 -73 -97 0 -34 58 -132 104 -175 45 -42
130 -28 155 25 20 44 12 80 -28 140 -62 93 -98 118 -158 107z"/>
<path d="M3493 4725 c-24 -17 -220 -282 -247 -332 -21 -41 -20 -61 4 -100 29
-48 90 -60 141 -28 15 9 228 296 248 333 5 9 7 33 6 52 -6 70 -96 114 -152 75z"/>
<path d="M1115 4678 c-40 -23 -50 -41 -50 -88 0 -42 8 -56 108 -193 60 -81
118 -154 130 -162 28 -20 77 -19 106 1 29 21 52 74 44 105 -5 20 -187 283
-218 315 -32 33 -84 43 -120 22z"/>
<path d="M2196 4309 c-458 -49 -875 -344 -1080 -766 -40 -81 -89 -224 -105
-303 -6 -30 -13 -68 -17 -85 -3 -16 -7 -94 -8 -172 -3 -137 9 -249 34 -344 7
-24 13 -51 15 -59 7 -34 59 -169 87 -225 50 -100 136 -222 235 -334 193 -217
299 -415 352 -656 30 -139 33 -192 32 -615 -1 -356 1 -399 17 -430 23 -47 53
-60 142 -60 l75 0 19 -45 c27 -67 97 -140 169 -175 183 -89 398 -15 484 168
l24 52 85 0 c46 0 86 0 89 0 3 0 19 7 36 15 55 29 56 42 57 485 0 443 3 488
38 636 50 214 158 418 305 579 184 202 274 345 343 546 38 114 43 132 61 264
12 92 12 269 0 360 -12 94 -65 277 -105 365 -171 381 -506 664 -905 764 -144
36 -334 50 -479 35z m394 -225 c350 -75 667 -339 808 -674 42 -98 69 -189 78
-263 3 -23 7 -48 10 -56 6 -19 5 -238 -1 -281 -41 -265 -126 -437 -329 -668
-58 -67 -131 -158 -161 -202 -158 -232 -248 -510 -259 -801 -2 -44 -6 -82 -8
-85 -4 -3 -684 -7 -773 -4 -6 0 -10 15 -10 33 3 87 -19 263 -46 369 -69 273
-206 511 -432 753 -118 125 -240 383 -263 555 -3 25 -8 48 -11 53 -6 10 -5
244 2 292 52 375 284 704 622 878 243 125 502 159 773 101z m136 -3247 c5 -5
7 -171 5 -332 l-1 -40 -387 1 c-214 1 -390 2 -393 3 -3 0 -5 83 -5 183 0 134
3 184 12 188 17 7 762 4 769 -3z m-286 -582 c0 -10 -51 -37 -85 -45 -43 -10
-108 6 -131 31 -17 19 -14 19 99 19 65 0 117 -2 117 -5z"/>
<path d="M2459 3891 c-16 -16 -29 -35 -30 -43 0 -7 -2 -21 -4 -30 -2 -10 7
-32 19 -50 17 -26 36 -37 92 -54 85 -26 192 -76 258 -121 26 -18 54 -34 62
-34 8 -1 20 -2 27 -3 41 -7 97 55 97 108 0 52 -110 137 -254 198 -156 66 -223
73 -267 29z"/>
<path d="M1999 3881 c-181 -68 -345 -193 -454 -346 -45 -63 -125 -211 -125
-233 0 -7 -4 -20 -10 -30 -20 -38 -43 -162 -46 -252 -3 -78 0 -99 14 -116 38
-46 85 -55 133 -27 35 21 46 49 54 138 12 139 56 264 130 374 56 83 75 103
156 172 60 51 214 139 244 139 26 0 76 33 90 61 19 37 11 87 -18 117 -35 35
-81 36 -168 3z"/>
<path d="M4614 3835 c-111 -36 -132 -50 -145 -95 -20 -67 24 -130 92 -130 44
0 192 55 221 82 62 58 13 170 -74 167 -13 0 -55 -11 -94 -24z"/>
<path d="M4060 3655 c-165 -54 -175 -60 -194 -100 -22 -45 -5 -100 37 -125 18
-11 39 -20 47 -20 8 0 82 21 164 48 192 61 224 89 200 179 -7 27 -62 63 -95
63 -13 0 -85 -21 -159 -45z"/>
<path d="M373 3675 c-89 -37 -83 -154 9 -188 115 -43 328 -110 365 -114 37 -4
46 -1 73 25 16 17 31 41 31 54 4 85 -19 103 -222 168 -211 68 -220 70 -256 55z"/>
<path d="M3933 2565 c-40 -17 -63 -51 -63 -95 0 -64 29 -82 237 -150 103 -33
199 -60 213 -60 54 0 104 65 93 122 -9 47 -46 68 -215 124 -211 71 -228 74
-265 59z"/>
<path d="M560 2471 c-221 -74 -206 -67 -225 -107 -31 -65 14 -144 81 -144 50
0 401 118 424 142 59 64 16 168 -70 167 -19 0 -114 -26 -210 -58z"/>
<path d="M3304 1695 c-37 -35 -45 -76 -22 -118 22 -43 213 -302 238 -324 61
-55 160 -8 160 74 0 29 -9 53 -35 89 -136 193 -214 292 -235 299 -51 16 -71
12 -106 -20z"/>
<path d="M1270 1583 c-19 -8 -41 -33 -99 -113 -36 -51 -46 -73 -46 -105 0 -79
77 -122 150 -85 11 6 46 48 78 92 46 66 57 89 57 121 0 70 -72 116 -140 90z"/>
<path d="M972 1139 c-18 -4 -44 -17 -58 -30 -37 -35 -113 -151 -118 -179 -5
-34 19 -77 55 -99 56 -34 101 -12 173 89 65 90 73 115 53 162 -18 44 -60 66
-105 57z"/>
</g>
</svg>
